<?xml version="1.0" encoding="utf-8"?>
<!-- Generator: Adobe Illustrator 21.1.0, SVG Export Plug-In . SVG Version: 6.00 Build 0)  -->
<svg version="1.1" id="Laag_1" xmlns="http://www.w3.org/2000/svg" xmlns:xlink="http://www.w3.org/1999/xlink" x="0px" y="0px"
	 width="83px" height="111.5px" viewBox="0 0 83 111.5" style="enable-background:new 0 0 83 111.5;" xml:space="preserve">
<g>
	<g>
		<linearGradient id="SVGID_1_" gradientUnits="userSpaceOnUse" x1="0.1821" y1="25.5078" x2="84.5054" y2="25.5078">
			<stop  offset="0" style="stop-color:#009EE3"/>
			<stop  offset="0.1202" style="stop-color:#00A0D6"/>
			<stop  offset="0.374" style="stop-color:#00A4B2"/>
			<stop  offset="0.737" style="stop-color:#0DAA6E"/>
			<stop  offset="1" style="stop-color:#59B02F"/>
		</linearGradient>
		<path style="fill:url(#SVGID_1_);" d="M66.2,51c-3.8,0-7.6-1.3-10.7-3.8c-2.8-2.2-4.7-5.2-5.7-8.5c-0.4-1.5-0.7-3.1-0.7-4.7
			c0-3.3,0-32.4,0-33.2l0-0.9h6.8c0,0,0,32.1,0,34.1c0,1,0.1,1.9,0.4,2.8c0.7,2.6,2.5,4.8,4.8,6.1c2.4,1.3,5.1,1.6,7.7,0.9
			c2.6-0.7,4.8-2.5,6.1-4.8c1.3-2.4,1.6-5.1,0.9-7.7c-0.6-2-1.8-3.9-3.6-5.2c-1.8-1.4-4-2.1-6.2-2.1l-0.8,0v-6.8l0.8,0
			c0.1,0,0.1,0,0.2,0c1.5,0,6,0.1,10.5,3.8c2.7,2.2,4.6,5.1,5.6,8.5l0,0c1.2,4.3,0.7,8.9-1.5,12.9c-2.2,3.9-5.8,6.8-10.1,8
			C69.2,50.8,67.7,51,66.2,51z"/>
	</g>
	<g>
		<linearGradient id="SVGID_2_" gradientUnits="userSpaceOnUse" x1="9.785909e-02" y1="51.9417" x2="84.5069" y2="51.9417">
			<stop  offset="0" style="stop-color:#009EE3"/>
			<stop  offset="0.1202" style="stop-color:#00A0D6"/>
			<stop  offset="0.374" style="stop-color:#00A4B2"/>
			<stop  offset="0.737" style="stop-color:#0DAA6E"/>
			<stop  offset="1" style="stop-color:#59B02F"/>
		</linearGradient>
		<path style="fill:url(#SVGID_2_);" d="M40.5,85.3c-1.9,0-3.7-0.3-5.5-0.9c-4.1-1.4-7.5-4.3-9.5-8.2l0,0c-0.1-0.2-0.2-0.4-0.3-0.6
			c-0.1-0.3-0.3-0.6-0.4-0.9l0,0c-0.1-0.2-0.2-0.4-0.2-0.6l0,0c0,0,0-0.1,0-0.1c-0.1-0.2-0.1-0.4-0.2-0.6c0-0.1,0-0.1-0.1-0.2
			c-0.1-0.2-0.1-0.4-0.2-0.6c0-0.1,0-0.1,0-0.2l0,0C24,72,24,71.8,24,71.6l0-0.1c0-0.2-0.1-0.4-0.1-0.7l0-0.1c0-0.2-0.1-0.5-0.1-0.7
			l0-0.1c0-0.2,0-0.5,0-0.7l0-0.1c0-0.1,0-0.1,0-0.2l0-0.9h6.7l0,0.8c0,0.1,0,0.2,0,0.3l0,0c0,0.1,0,0.2,0,0.4l0,0.1
			c0.3,2.5,1.4,4.8,3.3,6.4c1.9,1.7,4.3,2.6,6.8,2.6c5.4,0,9.8-4.2,10.1-9.6c0,0,0-0.1,0-0.1l0,0c0-0.1,0-0.2,0-0.3
			c0-0.1,0-0.2,0-0.3l0,0c0-0.1,0-0.2,0-0.3l0-0.2c0-0.1,0-0.1,0-0.2l0-0.1c-0.1-1.1-0.4-2.2-0.9-3.3l-0.1-0.1l0-0.1
			c-0.7-1.4-1.7-2.6-3-3.6l0,0c-0.5-0.4-1.1-0.8-1.6-1.2c-0.3-0.2-0.5-0.4-0.8-0.6c-3.5-2.7-11.9-8.6-12.9-9.3l0,0
			c-1.9-1.3-3.4-3-4.6-4.9l0,0c-2.6-3.9-2.5-9.6-2.5-9.6l0-0.9l0,0c0.4-4,2.2-7.6,5-10.4c3.2-3.1,7.3-4.7,11.7-4.7c0,0,0.1,0,0.1,0
			l0.8,0v6.7l-0.8,0c0,0-0.1,0-0.1,0c-2.6,0-5.2,1-7.1,2.9c-1.9,1.9-3,4.4-3.1,7l0,0c0,0,0,0.1,0,0.1c0,3.3,1.6,6.5,4.3,8.4
			c1,0.7,9.4,6.7,13.1,9.4c0.2,0.2,0.4,0.3,0.6,0.5l0.2,0.1c0.4,0.3,0.8,0.6,1.2,0.9c4,2.9,6.6,7.4,7,12.3l0,0.2c0,0.1,0,0.3,0,0.4
			l0,0.1c0,0,0,0,0,0.1l0,0c0,0,0,0,0,0l0,0c0,0,0,0.1,0,0.1l0,0.1c0,0.1,0,0.2,0,0.2l0,0c0,0,0,0.1,0,0.1c0,0,0,0.1,0,0.1l0,0.1
			c0,0,0,0.1,0,0.1c0,0.1,0,0.2,0,0.2c0,0,0,0.1,0,0.1l0,0.1c0,0.1,0,0.1,0,0.2l0,0c0,0.2,0,0.5-0.1,0.7l0,0c-0.2,2.1-0.8,4.1-1.8,6
			c0,0.1-0.1,0.2-0.1,0.3l0,0.1c0,0.1-0.1,0.1-0.1,0.2c-1.7,3.1-4.4,5.6-7.6,7.1C45.4,84.8,42.9,85.3,40.5,85.3z M25.5,76.1
			C25.5,76.1,25.5,76.1,25.5,76.1C25.5,76.1,25.5,76.1,25.5,76.1z M25.5,76.1C25.5,76.1,25.5,76.1,25.5,76.1L25.5,76.1z M27,75.4
			L27,75.4C27,75.4,27,75.4,27,75.4z M29.6,69L29.6,69L29.6,69L29.6,69z"/>
	</g>
	<g>
		<linearGradient id="SVGID_3_" gradientUnits="userSpaceOnUse" x1="9.785909e-02" y1="48.1609" x2="84.5069" y2="48.1609">
			<stop  offset="0" style="stop-color:#009EE3"/>
			<stop  offset="0.1202" style="stop-color:#00A0D6"/>
			<stop  offset="0.374" style="stop-color:#00A4B2"/>
			<stop  offset="0.737" style="stop-color:#0DAA6E"/>
			<stop  offset="1" style="stop-color:#59B02F"/>
		</linearGradient>
		<path style="fill:url(#SVGID_3_);" d="M16.8,65.1c-2,0-3.9-0.3-5.7-1C5.2,61.9,1,56.7,0.1,50.4l0-0.1c0-0.2,0-0.4-0.1-0.6
			c0,0,0,0,0-0.1l0,0c0,0,0-0.1,0-0.1l0-0.1c0-0.1,0-0.3,0-0.4l0,0c0,0,0-0.1,0-0.1c0-0.1,0-0.1,0-0.2c0,0,0-0.1,0-0.1l0-0.1
			c0-0.1,0-0.1,0-0.2l0-0.1c0,0,0-0.1,0-0.1c0-0.1,0-0.2,0-0.4l0,0c0.1-5,2.4-9.6,6.2-12.7c1.9-1.6,4.1-2.6,6.5-3.2c0,0,0,0,0,0
			c0,0,0.1,0,0.1,0l0.1,0c0.1,0,0.1,0,0.2,0c1.2-0.3,2.5-0.4,3.8-0.4l0.8,0V38l-0.9,0c-0.1,0-0.1,0-0.2,0l-0.1,0c-0.1,0-0.2,0-0.3,0
			c-0.1,0-0.2,0-0.2,0l-0.6,0.1c-0.2,0-0.3,0-0.4,0.1l-0.6,0.2c-1.4,0.4-2.7,1-3.8,1.9l-0.1,0.1c-0.1,0.1-0.2,0.1-0.2,0.2l0,0
			c-2.2,1.9-3.5,4.7-3.5,7.6c0,0.7,0.1,1.3,0.2,1.9C7,50.3,7,50.4,7,50.6c1.1,4.5,5.2,7.7,9.8,7.7c0,0,0,0,0.1,0l0.8,0V65l-0.8,0
			C16.9,65.1,16.9,65.1,16.8,65.1z"/>
	</g>
</g>
<g>
	<path style="fill:#009EE3;" d="M0.1,109.8l0.9-5.2h1.3l1,2.7l1-2.7h1.3l0.9,5.2H5.2l-0.4-3l-1.2,3H3l-1.2-3l-0.4,3H0.1z"/>
	<path style="fill:#009EE3;" d="M11,108.9H9.1l-0.3,0.9H7.4l2-5.2h1.5l2,5.2h-1.4L11,108.9z M10.7,107.9l-0.6-1.7l-0.6,1.7H10.7z"/>
	<path style="fill:#009EE3;" d="M14.4,104.6l1.2,3.1l1.3-3.1h1.5l-2.2,5.2h-1.1l-2.2-5.2H14.4z"/>
	<path style="fill:#009EE3;" d="M18.9,107.2c0-0.4,0.1-0.7,0.2-1.1c0.1-0.3,0.3-0.6,0.6-0.9c0.3-0.2,0.6-0.4,0.9-0.6
		c0.3-0.1,0.7-0.2,1.2-0.2c0.4,0,0.8,0.1,1.1,0.2c0.4,0.1,0.7,0.3,0.9,0.6c0.3,0.2,0.5,0.5,0.6,0.9c0.1,0.3,0.2,0.7,0.2,1.1
		c0,0.4-0.1,0.7-0.2,1.1c-0.1,0.3-0.3,0.6-0.6,0.9c-0.3,0.2-0.6,0.4-0.9,0.6c-0.4,0.1-0.7,0.2-1.1,0.2c-0.4,0-0.8-0.1-1.2-0.2
		c-0.3-0.1-0.6-0.3-0.9-0.6c-0.3-0.2-0.4-0.5-0.6-0.9C18.9,107.9,18.9,107.6,18.9,107.2z M20.3,107.2c0,0.2,0,0.4,0.1,0.6
		c0.1,0.2,0.2,0.3,0.3,0.5s0.3,0.2,0.5,0.3c0.2,0.1,0.4,0.1,0.6,0.1c0.2,0,0.4,0,0.6-0.1c0.2-0.1,0.3-0.2,0.5-0.3
		c0.1-0.1,0.2-0.3,0.3-0.5c0.1-0.2,0.1-0.4,0.1-0.6c0-0.2,0-0.4-0.1-0.6c-0.1-0.2-0.2-0.3-0.3-0.5c-0.1-0.1-0.3-0.2-0.5-0.3
		c-0.2-0.1-0.4-0.1-0.6-0.1c-0.2,0-0.4,0-0.6,0.1c-0.2,0.1-0.3,0.2-0.5,0.3s-0.2,0.3-0.3,0.5C20.3,106.8,20.3,107,20.3,107.2z"/>
	<path style="fill:#009EE3;" d="M32.9,106.6h1.9v-2h1.3v5.2h-1.3v-2.1h-1.9v2.1h-1.3v-5.2h1.3V106.6z"/>
	<path style="fill:#009EE3;" d="M40.9,108.9h-1.9l-0.3,0.9h-1.4l2-5.2h1.5l2,5.2h-1.4L40.9,108.9z M40.5,107.9l-0.6-1.7l-0.6,1.7
		H40.5z"/>
	<path style="fill:#009EE3;" d="M44.2,104.6l1.2,3.1l1.3-3.1h1.5l-2.2,5.2h-1.1l-2.2-5.2H44.2z"/>
	<path style="fill:#009EE3;" d="M48.7,107.2c0-0.4,0.1-0.7,0.2-1.1c0.1-0.3,0.3-0.6,0.6-0.9c0.3-0.2,0.6-0.4,0.9-0.6
		c0.3-0.1,0.7-0.2,1.2-0.2c0.4,0,0.8,0.1,1.1,0.2c0.4,0.1,0.7,0.3,0.9,0.6c0.3,0.2,0.5,0.5,0.6,0.9c0.1,0.3,0.2,0.7,0.2,1.1
		c0,0.4-0.1,0.7-0.2,1.1c-0.1,0.3-0.3,0.6-0.6,0.9c-0.3,0.2-0.6,0.4-0.9,0.6c-0.4,0.1-0.7,0.2-1.1,0.2c-0.4,0-0.8-0.1-1.2-0.2
		c-0.3-0.1-0.6-0.3-0.9-0.6c-0.3-0.2-0.4-0.5-0.6-0.9C48.8,107.9,48.7,107.6,48.7,107.2z M50.1,107.2c0,0.2,0,0.4,0.1,0.6
		c0.1,0.2,0.2,0.3,0.3,0.5s0.3,0.2,0.5,0.3c0.2,0.1,0.4,0.1,0.6,0.1c0.2,0,0.4,0,0.6-0.1c0.2-0.1,0.3-0.2,0.5-0.3
		c0.1-0.1,0.2-0.3,0.3-0.5c0.1-0.2,0.1-0.4,0.1-0.6c0-0.2,0-0.4-0.1-0.6c-0.1-0.2-0.2-0.3-0.3-0.5c-0.1-0.1-0.3-0.2-0.5-0.3
		c-0.2-0.1-0.4-0.1-0.6-0.1c-0.2,0-0.4,0-0.6,0.1c-0.2,0.1-0.3,0.2-0.5,0.3s-0.2,0.3-0.3,0.5C50.1,106.8,50.1,107,50.1,107.2z"/>
	<path style="fill:#009EE3;" d="M62.2,104.6l1.2,3.1l1.3-3.1h1.5l-2.2,5.2H63l-2.2-5.2H62.2z"/>
	<path style="fill:#009EE3;" d="M68.1,104.6l0.9,3.3l1.1-3.3h1.1l1.1,3.3l0.9-3.3h1.4l-1.5,5.2h-1.4l-1-3l-1,3h-1.4l-1.5-5.2H68.1z"
		/>
	<path style="fill:#009EE3;" d="M75.2,107.2c0-0.4,0.1-0.7,0.2-1.1c0.1-0.3,0.3-0.6,0.6-0.9c0.3-0.2,0.6-0.4,0.9-0.6
		c0.3-0.1,0.7-0.2,1.2-0.2c0.4,0,0.8,0.1,1.1,0.2c0.4,0.1,0.7,0.3,0.9,0.6c0.3,0.2,0.5,0.5,0.6,0.9c0.1,0.3,0.2,0.7,0.2,1.1
		c0,0.4-0.1,0.7-0.2,1.1c-0.1,0.3-0.3,0.6-0.6,0.9c-0.3,0.2-0.6,0.4-0.9,0.6c-0.4,0.1-0.7,0.2-1.1,0.2c-0.4,0-0.8-0.1-1.2-0.2
		c-0.3-0.1-0.6-0.3-0.9-0.6c-0.3-0.2-0.4-0.5-0.6-0.9C75.3,107.9,75.2,107.6,75.2,107.2z M76.6,107.2c0,0.2,0,0.4,0.1,0.6
		c0.1,0.2,0.2,0.3,0.3,0.5s0.3,0.2,0.5,0.3c0.2,0.1,0.4,0.1,0.6,0.1c0.2,0,0.4,0,0.6-0.1c0.2-0.1,0.3-0.2,0.5-0.3
		c0.1-0.1,0.2-0.3,0.3-0.5c0.1-0.2,0.1-0.4,0.1-0.6c0-0.2,0-0.4-0.1-0.6c-0.1-0.2-0.2-0.3-0.3-0.5c-0.1-0.1-0.3-0.2-0.5-0.3
		c-0.2-0.1-0.4-0.1-0.6-0.1c-0.2,0-0.4,0-0.6,0.1c-0.2,0.1-0.3,0.2-0.5,0.3s-0.2,0.3-0.3,0.5C76.6,106.8,76.6,107,76.6,107.2z"/>
</g>
<g>
	<rect x="27.5" y="104.6" style="fill:#59B02F;" width="0.5" height="5.2"/>
</g>
<g>
	<rect x="57.5" y="104.6" style="fill:#59B02F;" width="0.5" height="5.2"/>
</g>
</svg>
